{"title":"I Heart Radio Music Festival_720p.HDTV.x264_2012_10_01_TTL","uid":7788478,"size":2658319385,"categoryP":"video","categoryS":"hd___tv_shows","magnet":"?xt=urn:btih:4ae745dac7764ac47d5ab38146bf7daf8b5079fd&amp;dn=I+Heart+Radio+Music+Festival_720p.HDTV.x264_2012_10_01_TTL&amp;tr=udp%3A%2F%2Ftracker.openbittorrent.com%3A80&amp;tr=udp%3A%2F%2Fopen.demonii.com%3A1337&amp;tr=udp%3A%2F%2Ftracker.coppersurfer.tk%3A6969&amp;tr=udp%3A%2F%2Fexodus.desync.com%3A6969","seeders":0,"leechers":1,"uploader":"thetorrentlord","files":-1,"time":1351958927,"description":"As promised, since the super group Sceneline is only interested in how many torrents they can upload and not whether they can continue to seed what they post for more than 24 hours, here is a file that will be seeded for longer than a few days.\t\t\t\t\t\t\t\t\t\t\t\t\t\t\t\t\t\t\t\t\t\t\t                                 It is no excuse that you have more torrents to upload so that you can not continue to seed what you already posted, then get a larger hard drive like everyone else if you want to post everything under the sun.\t\t\t\t\t\t\t\t\t\t\t\t\t\t\t\t\t\t\t\t\tIf I can seed longer, then they should also be able to continue seeding what they post. \t\t\t\t\t\t\t\t\t\t\t\t\tAlso this is not rared, as in this day and age nothing should be, this is not newsgroups anymore.\t\t\t\t\t\t\t\t\t\t\t\t\t\t\t\t\t\t\t\t\t\t\tAm I the only one tired of their lack of seeding ???\t\t\t\t\t\t\t\t\t\t\t\t\t\t\t\t\t\t\t\t\t\t\t\t\t\t\t\t\t\t\t\t\t\t\t\t\t\t\t\t\t\t\t\t\t\t\t\t\t\t\t\t\t\t\t\t\t\t\t\t\t\t\t\t\t\t\t\t\t\t\t\t\t\t\t\t\tEnjoy and please share.                                                                    \t\t\t\t\t\t\t\t\t\t\t\tTheir original post was here(http://thepiratebay.se/torrent/7692714/I.Heart.Radio.Music.Festival.2012.720p.HDTV.x264-2HD)\t\t\t\t\t\t\t\t\t\t\t\t\t\t\t\t\t\t\t\t\t\t\t\tTTLTTLTTLTTLTTLTTLTTLTTLTTLTTLTTLTTLTTLTTLTTLTTLTTLTTLTTL\t\t\t\t\t\t\t\t\t\t\t\t\t\t\t\t\t\t\t\t\t\t\t\t\t\t\t\t\t\t\t\t\t\t\t\t\t\t\t\t\t\t\t\t\t\t\t\t\t\t\t\t\t\t\t\t\t\t\t\t\t\t\t\t\tI Heart Radio Music Festival_720p.HDTV.x264_2012_10_01_TTL.mkv\nFormat                           : Matroska\nFile size                        : 2.48 GiB\nDuration                         : 1h 23mn\nOverall bit rate                 : 4 239 Kbps\nWriting application              : HandBrake 0.9.5\nWriting library                  : libmkv 0.6.4.1\n\nVideo\nID                               : 1\nFormat                           : AVC\nFormat/Info                      : Advanced Video Codec\nFormat profile                   : &lt;a class=&quot;__cf_email__&quot; href=&quot;/cdn-cgi/l/email-protection&quot; data-cfemail=&quot;91dcf0f8ffd1dda2bfa3&quot;&gt;[email&amp;#160;protected]&lt;/a&gt;&lt;script cf-hash='f9e31' type=&quot;text/javascript&quot;&gt;\n/* &lt;![CDATA[ */!function(){try{var t=&quot;currentScript&quot;in document?document.currentScript:function(){for(var t=document.getElementsByTagName(&quot;script&quot;),e=t.length;e--;)if(t[e].getAttribute(&quot;cf-hash&quot;))return t[e]}();if(t&amp;&amp;t.previousSibling){var e,r,n,i,c=t.previousSibling,a=c.getAttribute(&quot;data-cfemail&quot;);if(a){for(e=&quot;&quot;,r=parseInt(a.substr(0,2),16),n=2;a.length-n;n+=2)i=parseInt(a.substr(n,2),16)^r,e+=String.fromCharCode(i);e=document.createTextNode(e),c.parentNode.replaceChild(e,c)}}}catch(u){}}();/* ]]&gt; */&lt;/script&gt;\nFormat settings, CABAC           : Yes\nFormat settings, ReFrames        : 4 frames\nMuxing mode                      : Container profile=&lt;a class=&quot;__cf_email__&quot; href=&quot;/cdn-cgi/l/email-protection&quot; data-cfemail=&quot;52073c393c3d253c12617c60&quot;&gt;[email&amp;#160;protected]&lt;/a&gt;&lt;script cf-hash='f9e31' type=&quot;text/javascript&quot;&gt;\n/* &lt;![CDATA[ */!function(){try{var t=&quot;currentScript&quot;in document?document.currentScript:function(){for(var t=document.getElementsByTagName(&quot;script&quot;),e=t.length;e--;)if(t[e].getAttribute(&quot;cf-hash&quot;))return t[e]}();if(t&amp;&amp;t.previousSibling){var e,r,n,i,c=t.previousSibling,a=c.getAttribute(&quot;data-cfemail&quot;);if(a){for(e=&quot;&quot;,r=parseInt(a.substr(0,2),16),n=2;a.length-n;n+=2)i=parseInt(a.substr(n,2),16)^r,e+=String.fromCharCode(i);e=document.createTextNode(e),c.parentNode.replaceChild(e,c)}}}catch(u){}}();/* ]]&gt; */&lt;/script&gt;\nCodec ID                         : V_MPEG4/ISO/AVC\nDuration                         : 1h 23mn\nBit rate                         : 3 771 Kbps\nNominal bit rate                 : 3 846 Kbps\nWidth                            : 1 280 pixels\nHeight                           : 720 pixels\nDisplay aspect ratio             : 16:9\nFrame rate mode                  : Variable\nFrame rate                       : 59.940 fps\nResolution                       : 8 bits\nColorimetry                      : 4:2:0\nScan type                        : Progressive\nBits/(Pixel*Frame)               : 0.068\nStream size                      : 2.20 GiB (89%)\nWriting library                  : x264 core 112\n\nAudio                            : English\nID                               : 2\nFormat                           : AC-3\nFormat/Info                      : Audio Coding 3\nCodec ID                         : A_AC3\nDuration                         : 1h 23mn\nBit rate mode                    : Constant\nBit rate                         : 384 Kbps\nChannel(s)                       : 2 channels\nChannel positions                : L R\nSampling rate                    : 48.0 KHz\nStream size                      : 230 MiB (9%)\n\n","torrent":{"xt":"urn:btih:4ae745dac7764ac47d5ab38146bf7daf8b5079fd","amp;dn":"I+Heart+Radio+Music+Festival_720p.HDTV.x264_2012_10_01_TTL","amp;tr":["udp%3A%2F%2Ftracker.openbittorrent.com%3A80","udp%3A%2F%2Fopen.demonii.com%3A1337","udp%3A%2F%2Ftracker.coppersurfer.tk%3A6969","udp%3A%2F%2Fexodus.desync.com%3A6969"],"infoHash":"4ae745dac7764ac47d5ab38146bf7daf8b5079fd","infoHashBuffer":{"type":"Buffer","data":[74,231,69,218,199,118,74,196,125,90,179,129,70,191,125,175,139,80,121,253]},"announce":[],"urlList":[]}}